<svg width="88" height="88" viewBox="0 0 88 88" fill="none" xmlns="http://www.w3.org/2000/svg">
<mask id="path-1-inside-1_1681_2188" fill="white">
<path d="M12 34C12 16.3269 26.3269 2 44 2C61.6731 2 76 16.3269 76 34C76 51.6731 61.6731 66 44 66C26.3269 66 12 51.6731 12 34Z"/>
</mask>
<path d="M12 34C12 16.3269 26.3269 2 44 2C61.6731 2 76 16.3269 76 34C76 51.6731 61.6731 66 44 66C26.3269 66 12 51.6731 12 34Z" fill="#1A2E33"/>
<path d="M12 34M76 34M76 34M12 34M44 2M76 34M44 66M12 34M44 66V65C26.8792 65 13 51.1208 13 34H12H11C11 52.2254 25.7746 67 44 67V66ZM76 34H75C75 51.1208 61.1208 65 44 65V66V67C62.2254 67 77 52.2254 77 34H76ZM44 2V3C61.1208 3 75 16.8792 75 34H76H77C77 15.7746 62.2254 1 44 1V2ZM44 2V1C25.7746 1 11 15.7746 11 34H12H13C13 16.8792 26.8792 3 44 3V2Z" fill="#224249" mask="url(#path-1-inside-1_1681_2188)"/>
<g filter="url(#filter0_dd_1681_2188)">
<rect x="12" y="2" width="64" height="64" rx="32" fill="white" fill-opacity="0.01" shape-rendering="crispEdges"/>
</g>
<path d="M44 40.25H46.5V27.75H41.5V30.25H44V40.25ZM35.25 45.25C34.5625 45.25 33.974 45.0052 33.4844 44.5156C32.9948 44.026 32.75 43.4375 32.75 42.75V25.25C32.75 24.5625 32.9948 23.974 33.4844 23.4844C33.974 22.9948 34.5625 22.75 35.25 22.75H52.75C53.4375 22.75 54.026 22.9948 54.5156 23.4844C55.0052 23.974 55.25 24.5625 55.25 25.25V42.75C55.25 43.4375 55.0052 44.026 54.5156 44.5156C54.026 45.0052 53.4375 45.25 52.75 45.25H35.25ZM35.25 42.75H52.75V25.25H35.25V42.75Z" fill="#0DCCF2"/>
<defs>
<filter id="filter0_dd_1681_2188" x="0" y="0" width="88" height="88" filterUnits="userSpaceOnUse" color-interpolation-filters="sRGB">
<feFlood flood-opacity="0" result="BackgroundImageFix"/>
<feColorMatrix in="SourceAlpha" type="matrix" values="0 0 0 0 0 0 0 0 0 0 0 0 0 0 0 0 0 0 127 0" result="hardAlpha"/>
<feMorphology radius="4" operator="erode" in="SourceAlpha" result="effect1_dropShadow_1681_2188"/>
<feOffset dy="4"/>
<feGaussianBlur stdDeviation="3"/>
<feComposite in2="hardAlpha" operator="out"/>
<feColorMatrix type="matrix" values="0 0 0 0 0 0 0 0 0 0 0 0 0 0 0 0 0 0 0.2 0"/>
<feBlend mode="normal" in2="BackgroundImageFix" result="effect1_dropShadow_1681_2188"/>
<feColorMatrix in="SourceAlpha" type="matrix" values="0 0 0 0 0 0 0 0 0 0 0 0 0 0 0 0 0 0 127 0" result="hardAlpha"/>
<feMorphology radius="3" operator="erode" in="SourceAlpha" result="effect2_dropShadow_1681_2188"/>
<feOffset dy="10"/>
<feGaussianBlur stdDeviation="7.5"/>
<feComposite in2="hardAlpha" operator="out"/>
<feColorMatrix type="matrix" values="0 0 0 0 0 0 0 0 0 0 0 0 0 0 0 0 0 0 0.2 0"/>
<feBlend mode="normal" in2="effect1_dropShadow_1681_2188" result="effect2_dropShadow_1681_2188"/>
<feBlend mode="normal" in="SourceGraphic" in2="effect2_dropShadow_1681_2188" result="shape"/>
</filter>
</defs>
</svg>
