<svg width="25" height="28" viewBox="0 0 25 28" fill="none" xmlns="http://www.w3.org/2000/svg">
<path d="M7.14893 4.27772H16.8711V11.9097C16.8711 12.2824 16.7901 12.6145 16.6281 12.9062C16.4661 13.1979 16.2392 13.4328 15.9475 13.6111L12.4961 15.6527L13.1767 17.8888H16.8711L13.8573 20.0277L15.0239 23.7222L12.01 21.4374L8.99615 23.7222L10.1628 20.0277L7.14893 17.8888H10.8434L11.5239 15.6527L8.07254 13.6111C7.78087 13.4328 7.55402 13.1979 7.39198 12.9062C7.22994 12.6145 7.14893 12.2824 7.14893 11.9097V4.27772ZM9.09337 6.22217V11.9097L11.0378 13.0763V6.22217H9.09337ZM14.9267 6.22217H12.9823V13.0763L14.9267 11.9097V6.22217Z" fill="#0DCCF2"/>
</svg>
