<svg width="88" height="88" viewBox="0 0 88 88" fill="none" xmlns="http://www.w3.org/2000/svg">
<mask id="path-1-inside-1_1681_1650" fill="white">
<path d="M12 34C12 16.3269 26.3269 2 44 2C61.6731 2 76 16.3269 76 34C76 51.6731 61.6731 66 44 66C26.3269 66 12 51.6731 12 34Z"/>
</mask>
<path d="M12 34C12 16.3269 26.3269 2 44 2C61.6731 2 76 16.3269 76 34C76 51.6731 61.6731 66 44 66C26.3269 66 12 51.6731 12 34Z" fill="#1A2E33"/>
<path d="M12 34M76 34M76 34M12 34M44 2M76 34M44 66M12 34M44 66V65C26.8792 65 13 51.1208 13 34H12H11C11 52.2254 25.7746 67 44 67V66ZM76 34H75C75 51.1208 61.1208 65 44 65V66V67C62.2254 67 77 52.2254 77 34H76ZM44 2V3C61.1208 3 75 16.8792 75 34H76H77C77 15.7746 62.2254 1 44 1V2ZM44 2V1C25.7746 1 11 15.7746 11 34H12H13C13 16.8792 26.8792 3 44 3V2Z" fill="#224249" mask="url(#path-1-inside-1_1681_1650)"/>
<g filter="url(#filter0_dd_1681_1650)">
<rect x="12" y="2" width="64" height="64" rx="32" fill="white" fill-opacity="0.01" shape-rendering="crispEdges"/>
</g>
<path d="M42.6875 41.9375L38.25 37.5L40.0625 35.6875L42.6875 38.3125L47.9375 33.0625L49.75 34.875L42.6875 41.9375ZM35.25 46.5C34.5625 46.5 33.974 46.2552 33.4844 45.7656C32.9948 45.276 32.75 44.6875 32.75 44V26.5C32.75 25.8125 32.9948 25.224 33.4844 24.7344C33.974 24.2448 34.5625 24 35.25 24H36.5V21.5H39V24H49V21.5H51.5V24H52.75C53.4375 24 54.026 24.2448 54.5156 24.7344C55.0052 25.224 55.25 25.8125 55.25 26.5V44C55.25 44.6875 55.0052 45.276 54.5156 45.7656C54.026 46.2552 53.4375 46.5 52.75 46.5H35.25ZM35.25 44H52.75V31.5H35.25V44ZM35.25 29H52.75V26.5H35.25V29Z" fill="#0DCCF2"/>
<defs>
<filter id="filter0_dd_1681_1650" x="0" y="0" width="88" height="88" filterUnits="userSpaceOnUse" color-interpolation-filters="sRGB">
<feFlood flood-opacity="0" result="BackgroundImageFix"/>
<feColorMatrix in="SourceAlpha" type="matrix" values="0 0 0 0 0 0 0 0 0 0 0 0 0 0 0 0 0 0 127 0" result="hardAlpha"/>
<feMorphology radius="4" operator="erode" in="SourceAlpha" result="effect1_dropShadow_1681_1650"/>
<feOffset dy="4"/>
<feGaussianBlur stdDeviation="3"/>
<feComposite in2="hardAlpha" operator="out"/>
<feColorMatrix type="matrix" values="0 0 0 0 0 0 0 0 0 0 0 0 0 0 0 0 0 0 0.2 0"/>
<feBlend mode="normal" in2="BackgroundImageFix" result="effect1_dropShadow_1681_1650"/>
<feColorMatrix in="SourceAlpha" type="matrix" values="0 0 0 0 0 0 0 0 0 0 0 0 0 0 0 0 0 0 127 0" result="hardAlpha"/>
<feMorphology radius="3" operator="erode" in="SourceAlpha" result="effect2_dropShadow_1681_1650"/>
<feOffset dy="10"/>
<feGaussianBlur stdDeviation="7.5"/>
<feComposite in2="hardAlpha" operator="out"/>
<feColorMatrix type="matrix" values="0 0 0 0 0 0 0 0 0 0 0 0 0 0 0 0 0 0 0.2 0"/>
<feBlend mode="normal" in2="effect1_dropShadow_1681_1650" result="effect2_dropShadow_1681_1650"/>
<feBlend mode="normal" in="SourceGraphic" in2="effect2_dropShadow_1681_1650" result="shape"/>
</filter>
</defs>
</svg>
